# Rhino

mtllib MyRoom.mtl
g Base_Blocks
o object_1
usemtl diffuse_255_255_255_255
v -4.4166665077209473 0 -2.4166667461395264
v -4.4166665077209473 1 -2.4166667461395264
v -2 0 -2.4166667461395264
v -2 1 -2.4166667461395264
v -2 0 -2.4166667461395264
v -2 1 -2.4166667461395264
v -2 0 -6.5833334922790527
v -2 1 -6.5833334922790527
v -2 0 -6.5833334922790527
v -2 1 -6.5833334922790527
v -4.4166665077209473 0 -6.5833334922790527
v -4.4166665077209473 1 -6.5833334922790527
v -4.4166665077209473 0 -6.5833334922790527
v -4.4166665077209473 1 -6.5833334922790527
v -4.4166665077209473 0 -2.4166667461395264
v -4.4166665077209473 1 -2.4166667461395264
v -4.4166665077209473 0 -2.4166667461395264
v -2 0 -2.4166667461395264
v -2 0 -6.5833334922790527
v -4.4166665077209473 0 -6.5833334922790527
v -4.4166665077209473 1 -2.4166667461395264
v -2 1 -2.4166667461395264
v -2 1 -6.5833334922790527
v -4.4166665077209473 1 -6.5833334922790527
vt 0 0
vt 0 0.58571392297744751
vt 0.18354430794715881 0
vt 0.18354430794715881 0.58571392297744751
vt 0.18354430794715881 0
vt 0.18354430794715881 0.58571392297744751
vt 0.5 0
vt 0.5 0.58571392297744751
vt 0.5 0
vt 0.5 0.58571392297744751
vt 0.68354427814483643 0
vt 0.68354427814483643 0.58571392297744751
vt 0.68354427814483643 0
vt 0.68354427814483643 0.58571392297744751
vt 1 0
vt 1 0.58571392297744751
vt 0.31645569205284119 1
vt 0.31645569205284119 0.58571451902389526
vt 0 0.58571451902389526
vt 0 1
vt 1 0.58571451902389526
vt 1 1
vt 0.68354427814483643 1
vt 0.68354427814483643 0.58571451902389526
vn 0 0 1
vn 0 0 1
vn 0 0 1
vn 0 0 1
vn 1 0 0
vn 1 0 0
vn 1 0 0
vn 1 0 0
vn 0 0 -1
vn 0 0 -1
vn 0 0 -1
vn 0 0 -1
vn -1 0 0
vn -1 0 0
vn -1 0 0
vn -1 0 0
vn 0 -1 0
vn 0 -1 0
vn 0 -1 0
vn 0 -1 0
vn 0 1 0
vn 0 1 0
vn 0 1 0
vn 0 1 0
f 18/18/18 17/17/17 20/20/20 19/19/19
f 24/24/24 21/21/21 22/22/22 23/23/23
f 1/1/1 3/3/3 4/4/4 2/2/2
f 5/5/5 7/7/7 8/8/8 6/6/6
f 9/9/9 11/11/11 12/12/12 10/10/10
f 13/13/13 15/15/15 16/16/16 14/14/14
o object_2
usemtl diffuse_255_255_255_255
v -2 0 -2.4166667461395264
v -2 1 -2.4166667461395264
v 0 0 -2.4166667461395264
v 0 1 -2.4166667461395264
v 0 0 -2.4166667461395264
v 0 1 -2.4166667461395264
v 0 0 -15.166666984558105
v 0 1 -15.166666984558105
v 0 0 -15.166666984558105
v 0 1 -15.166666984558105
v -2 0 -15.166666984558105
v -2 1 -15.166666984558105
v -2 0 -15.166666984558105
v -2 1 -15.166666984558105
v -2 0 -2.4166667461395264
v -2 1 -2.4166667461395264
v -2 0 -2.4166667461395264
v 0 0 -2.4166667461395264
v 0 0 -15.166666984558105
v -2 0 -15.166666984558105
v -2 1 -2.4166667461395264
v 0 1 -2.4166667461395264
v 0 1 -15.166666984558105
v -2 1 -15.166666984558105
vt 0 0
vt 0 0.59999966621398926
vt 0.067796610295772552 0
vt 0.067796610295772552 0.59999966621398926
vt 0.067796610295772552 0
vt 0.067796610295772552 0.59999966621398926
vt 0.5 0
vt 0.5 0.59999966621398926
vt 0.5 0
vt 0.5 0.59999966621398926
vt 0.56779658794403076 0
vt 0.56779658794403076 0.59999966621398926
vt 0.56779658794403076 0
vt 0.56779658794403076 0.59999966621398926
vt 1 0
vt 1 0.59999966621398926
vt 0.43220338225364685 1
vt 0.43220338225364685 0.60000026226043701
vt 0 0.60000026226043701
vt 0 1
vt 1 0.60000026226043701
vt 1 1
vt 0.56779658794403076 1
vt 0.56779658794403076 0.60000026226043701
vn 0 0 1
vn 0 0 1
vn 0 0 1
vn 0 0 1
vn 1 0 0
vn 1 0 0
vn 1 0 0
vn 1 0 0
vn 0 0 -1
vn 0 0 -1
vn 0 0 -1
vn 0 0 -1
vn -1 0 0
vn -1 0 0
vn -1 0 0
vn -1 0 0
vn 0 -1 0
vn 0 -1 0
vn 0 -1 0
vn 0 -1 0
vn 0 1 0
vn 0 1 0
vn 0 1 0
vn 0 1 0
f 42/42/42 41/41/41 44/44/44 43/43/43
f 48/48/48 45/45/45 46/46/46 47/47/47
f 25/25/25 27/27/27 28/28/28 26/26/26
f 29/29/29 31/31/31 32/32/32 30/30/30
f 33/33/33 35/35/35 36/36/36 34/34/34
f 37/37/37 39/39/39 40/40/40 38/38/38
o object_3
usemtl diffuse_255_255_255_255
v 0 0 0
v 0 1 0
v 9.1666669845581055 0 0
v 9.1666669845581055 1 0
v 9.1666669845581055 0 0
v 9.1666669845581055 1 0
v 9.1666669845581055 0 -15.166666984558105
v 9.1666669845581055 1 -15.166666984558105
v 9.1666669845581055 0 -15.166666984558105
v 9.1666669845581055 1 -15.166666984558105
v 0 0 -15.166666984558105
v 0 1 -15.166666984558105
v 0 0 -15.166666984558105
v 0 1 -15.166666984558105
v 0 0 0
v 0 1 0
v 0 0 0
v 9.1666669845581055 0 0
v 9.1666669845581055 0 -15.166666984558105
v 0 0 -15.166666984558105
v 0 1 0
v 9.1666669845581055 1 0
v 9.1666669845581055 1 -15.166666984558105
v 0 1 -15.166666984558105
vt 0 0
vt 0 0.52586179971694946
vt 0.18835616111755371 0
vt 0.18835616111755371 0.52586179971694946
vt 0.18835616111755371 0
vt 0.18835616111755371 0.52586179971694946
vt 0.5 0
vt 0.5 0.52586179971694946
vt 0.5 0
vt 0.5 0.52586179971694946
vt 0.68835616111755371 0
vt 0.68835616111755371 0.52586179971694946
vt 0.68835616111755371 0
vt 0.68835616111755371 0.52586179971694946
vt 1 0
vt 1 0.52586179971694946
vt 0.31164383888244629 1
vt 0.31164383888244629 0.52586233615875244
vt 0 0.52586233615875244
vt 0 1
vt 1 0.52586233615875244
vt 1 1
vt 0.68835616111755371 1
vt 0.68835616111755371 0.52586233615875244
vn 0 0 1
vn 0 0 1
vn 0 0 1
vn 0 0 1
vn 1 0 0
vn 1 0 0
vn 1 0 0
vn 1 0 0
vn 0 0 -1
vn 0 0 -1
vn 0 0 -1
vn 0 0 -1
vn -1 0 0
vn -1 0 0
vn -1 0 0
vn -1 0 0
vn 0 -1 0
vn 0 -1 0
vn 0 -1 0
vn 0 -1 0
vn 0 1 0
vn 0 1 0
vn 0 1 0
vn 0 1 0
f 66/66/66 65/65/65 68/68/68 67/67/67
f 72/72/72 69/69/69 70/70/70 71/71/71
f 49/49/49 51/51/51 52/52/52 50/50/50
f 53/53/53 55/55/55 56/56/56 54/54/54
f 57/57/57 59/59/59 60/60/60 58/58/58
f 61/61/61 63/63/63 64/64/64 62/62/62
g Carpet
o object_4
usemtl diffuse_184_172_117_255
v 9.1666669845581055 0 -15.166666984558105
v -4.4166665077209473 0 -15.166666984558105
v 9.1666669845581055 0 0
v -4.4166665077209473 0 0
vt 0 0
vt 0 1
vt 1 0
vt 1 1
vn 0 -1 0
vn 0 -1 0
vn 0 -1 0
vn 0 -1 0
f 76/76/76 74/74/74 73/73/73 75/75/75
g Outline
o Floor Outline
usemtl diffuse_0_0_0_255
v 0 0 0
v 0 0 -2.4166666666666665
v -4.4166666666666661 0 -2.4166666666666665
v -4.4166666666666661 0 -6.5833333333333321
v -1.9999999999999996 0 -6.5833333333333321
v -1.9999999999999996 0 -15.166666666666664
v 9.1666666666666661 0 -15.166666666666664
v 9.1666666666666661 0 0
cstype bspline
deg 1
curv 0 57.499999999999993 77 78 79 80 81 82 83 84 77
parm u 0 0 2.4166666666666665 6.8333333333333321 10.999999999999998 13.416666666666664 21.999999999999996 33.166666666666664 48.333333333333329 57.499999999999993 57.499999999999993
end
